<svg width="582" height="349" xmlns="http://www.w3.org/2000/svg" xmlns:xlink="http://www.w3.org/1999/xlink" xml:space="preserve" overflow="hidden"><defs><clipPath id="clip0"><rect x="230" y="119" width="582" height="349"/></clipPath></defs><g clip-path="url(#clip0)" transform="translate(-230 -119)"><path d="M34.9 197.767 151.233 197.767" stroke="#000000" stroke-width="2.32667" stroke-linecap="square" fill="none" transform="matrix(1.00057 0 0 1 230 119)"/><path d="M34.9 139.6 34.9 197.767" stroke="#000000" stroke-width="2.32667" stroke-linecap="square" fill="none" transform="matrix(1.00057 0 0 1 230 119)"/><path d="M34.9 139.6 69.8 139.6" stroke="#000000" stroke-width="2.32667" stroke-linecap="square" fill="none" transform="matrix(1.00057 0 0 1 230 119)"/><path d="M69.8 104.7 69.8 139.6" stroke="#000000" stroke-width="2.32667" stroke-linecap="square" fill="none" transform="matrix(1.00057 0 0 1 230 119)"/><path d="M81.4333 162.867 139.6 162.867" stroke="#000000" stroke-width="2.32667" stroke-linecap="square" fill="none" transform="matrix(1.00057 0 0 1 230 119)"/><path d="M81.4333 81.4333 81.4333 162.867" stroke="#000000" stroke-width="2.32667" stroke-linecap="square" fill="none" transform="matrix(1.00057 0 0 1 230 119)"/><path d="M302.467 209.4 337.367 209.4" stroke="#000000" stroke-width="2.32667" stroke-linecap="square" fill="none" transform="matrix(1.00057 0 0 1 230 119)"/><path d="M337.367 34.9 337.367 209.4" stroke="#000000" stroke-width="2.32667" stroke-linecap="square" fill="none" transform="matrix(1.00057 0 0 1 230 119)"/><path d="M69.8 34.9 337.367 34.9" stroke="#000000" stroke-width="2.32667" stroke-linecap="square" fill="none" transform="matrix(1.00057 0 0 1 230 119)"/><path d="M69.8 34.9 69.8 66.31" stroke="#000000" stroke-width="2.32667" stroke-linecap="square" fill="none" transform="matrix(1.00057 0 0 1 230 119)"/><path d="M69.8 96.5567 69.8 127.967" stroke="#000000" stroke-width="2.32667" stroke-linecap="square" fill="none" transform="matrix(1.00057 0 0 1 230 119)"/><path d="M69.8 66.31 69.8 68.6367 65.1467 73.29" stroke="#000000" stroke-width="2.32667" stroke-linecap="square" fill="none" transform="matrix(1.00057 0 0 1 230 119)"/><path d="M69.8 96.5567 69.8 94.23 65.1467 89.5767" stroke="#000000" stroke-width="2.32667" stroke-linecap="square" fill="none" transform="matrix(1.00057 0 0 1 230 119)"/><path d="M66.31 81.4333 81.4333 81.4333" stroke="#000000" stroke-width="2.32667" stroke-linecap="square" fill="none" transform="matrix(1.00057 0 0 1 230 119)"/><path d="M66.31 81.4333C66.31 89.1432 60.0599 95.3933 52.35 95.3933 44.6401 95.3933 38.39 89.1432 38.39 81.4333 38.39 73.7234 44.6401 67.4733 52.35 67.4733 60.0599 67.4733 66.31 73.7234 66.31 81.4333Z" stroke="#000000" stroke-width="2.32667" fill="none" transform="matrix(1.00057 0 0 1 230 119)"/><text font-family="Arial,Arial_MSFontService,sans-serif" font-weight="400" font-size="12" transform="matrix(1.164 0 0 1.16333 277.142 200)">M</text><path d="M69.8 174.5 139.6 174.5" stroke="#000000" stroke-width="2.32667" stroke-linecap="square" fill="none" transform="matrix(1.00057 0 0 1 230 119)"/><path d="M69.8 174.5 69.8 325.733" stroke="#000000" stroke-width="2.32667" stroke-linecap="square" fill="none" transform="matrix(1.00057 0 0 1 230 119)"/><path d="M69.8 325.733 418.8 325.733" stroke="#000000" stroke-width="2.32667" stroke-linecap="square" fill="none" transform="matrix(1.00057 0 0 1 230 119)"/><path d="M418.8 186.133 418.8 325.733" stroke="#000000" stroke-width="2.32667" stroke-linecap="square" fill="none" transform="matrix(1.00057 0 0 1 230 119)"/><path d="M290.833 232.667 430.433 232.667" stroke="#000000" stroke-width="2.32667" stroke-linecap="square" fill="none" transform="matrix(1.00057 0 0 1 230 119)"/><path d="M430.433 186.133 430.433 232.667" stroke="#000000" stroke-width="2.32667" stroke-linecap="square" fill="none" transform="matrix(1.00057 0 0 1 230 119)"/><path d="M290.833 221.033 442.067 221.033" stroke="#000000" stroke-width="2.32667" stroke-linecap="square" fill="none" transform="matrix(1.00057 0 0 1 230 119)"/><path d="M442.067 186.133 442.067 221.033" stroke="#000000" stroke-width="2.32667" stroke-linecap="square" fill="none" transform="matrix(1.00057 0 0 1 230 119)"/><path d="M290.833 104.7 558.4 104.7" stroke="#000000" stroke-width="2.32667" stroke-linecap="square" fill="none" transform="matrix(1.00057 0 0 1 230 119)"/><path d="M558.4 186.133 558.4 197.767" stroke="#000000" stroke-width="2.32667" stroke-linecap="square" fill="none" transform="matrix(1.00057 0 0 1 230 119)"/><path d="M558.4 104.7 558.4 186.133" stroke="#000000" stroke-width="2.32667" stroke-linecap="square" fill="none" transform="matrix(1.00057 0 0 1 230 119)"/><path d="M453.7 197.767 558.4 197.767" stroke="#000000" stroke-width="2.32667" stroke-linecap="square" fill="none" transform="matrix(1.00057 0 0 1 230 119)"/><path d="M453.7 186.133 453.7 197.767" stroke="#000000" stroke-width="2.32667" stroke-linecap="square" fill="none" transform="matrix(1.00057 0 0 1 230 119)"/><text font-family="Arial,Arial_MSFontService,sans-serif" font-weight="400" font-size="11" transform="matrix(-2.13823e-16 -1.16333 1.164 -2.13701e-16 649.04 289)">VCC<tspan font-size="11" x="-1.83697e-15" y="10">TRIG</tspan><tspan font-size="11" x="-3.67394e-15" y="20">ECHO</tspan><tspan font-size="11" x="-5.51092e-15" y="30">GND</tspan></text><path d="M151.233 75.6167 290.833 75.6167 290.833 302.467 151.233 302.467Z" stroke="#000000" stroke-width="2.32667" fill="none" transform="matrix(1.00057 0 0 1 230 119)"/><text font-family="Arial,Arial_MSFontService,sans-serif" font-weight="400" font-size="11" transform="matrix(1.164 0 0 1.16333 423.224 230)">ARDUINO<tspan font-size="11" x="7.00001" y="9.45559">UNO r</tspan><tspan font-size="11" x="36" y="9.45559">3</tspan></text><path d="M139.6 139.6 151.233 139.6" stroke="#000000" stroke-width="2.32667" stroke-linecap="square" fill="none" transform="matrix(1.00057 0 0 1 230 119)"/><path d="M139.6 151.233 151.233 151.233" stroke="#000000" stroke-width="2.32667" stroke-linecap="square" fill="none" transform="matrix(1.00057 0 0 1 230 119)"/><path d="M139.6 162.867 151.233 162.867" stroke="#000000" stroke-width="2.32667" stroke-linecap="square" fill="none" transform="matrix(1.00057 0 0 1 230 119)"/><path d="M139.6 174.5 151.233 174.5" stroke="#000000" stroke-width="2.32667" stroke-linecap="square" fill="none" transform="matrix(1.00057 0 0 1 230 119)"/><path d="M139.6 186.133 151.233 186.133" stroke="#000000" stroke-width="2.32667" stroke-linecap="square" fill="none" transform="matrix(1.00057 0 0 1 230 119)"/><path d="M139.6 197.767 151.233 197.767" stroke="#000000" stroke-width="2.32667" stroke-linecap="square" fill="none" transform="matrix(1.00057 0 0 1 230 119)"/><path d="M139.6 209.4 151.233 209.4" stroke="#000000" stroke-width="2.32667" stroke-linecap="square" fill="none" transform="matrix(1.00057 0 0 1 230 119)"/><path d="M139.6 232.667 151.233 232.667" stroke="#000000" stroke-width="2.32667" stroke-linecap="square" fill="none" transform="matrix(1.00057 0 0 1 230 119)"/><path d="M139.6 244.3 151.233 244.3" stroke="#000000" stroke-width="2.32667" stroke-linecap="square" fill="none" transform="matrix(1.00057 0 0 1 230 119)"/><path d="M139.6 255.933 151.233 255.933" stroke="#000000" stroke-width="2.32667" stroke-linecap="square" fill="none" transform="matrix(1.00057 0 0 1 230 119)"/><path d="M139.6 267.567 151.233 267.567" stroke="#000000" stroke-width="2.32667" stroke-linecap="square" fill="none" transform="matrix(1.00057 0 0 1 230 119)"/><path d="M139.6 279.2 151.233 279.2" stroke="#000000" stroke-width="2.32667" stroke-linecap="square" fill="none" transform="matrix(1.00057 0 0 1 230 119)"/><path d="M139.6 290.833 151.233 290.833" stroke="#000000" stroke-width="2.32667" stroke-linecap="square" fill="none" transform="matrix(1.00057 0 0 1 230 119)"/><path d="M290.833 104.7 302.467 104.7" stroke="#000000" stroke-width="2.32667" stroke-linecap="square" fill="none" transform="matrix(1.00057 0 0 1 230 119)"/><path d="M290.833 116.333 302.467 116.333" stroke="#000000" stroke-width="2.32667" stroke-linecap="square" fill="none" transform="matrix(1.00057 0 0 1 230 119)"/><path d="M290.833 127.967 302.467 127.967" stroke="#000000" stroke-width="2.32667" stroke-linecap="square" fill="none" transform="matrix(1.00057 0 0 1 230 119)"/><path d="M290.833 139.6 302.467 139.6" stroke="#000000" stroke-width="2.32667" stroke-linecap="square" fill="none" transform="matrix(1.00057 0 0 1 230 119)"/><path d="M290.833 151.233 302.467 151.233" stroke="#000000" stroke-width="2.32667" stroke-linecap="square" fill="none" transform="matrix(1.00057 0 0 1 230 119)"/><path d="M290.833 162.867 302.467 162.867" stroke="#000000" stroke-width="2.32667" stroke-linecap="square" fill="none" transform="matrix(1.00057 0 0 1 230 119)"/><path d="M290.833 174.5 302.467 174.5" stroke="#000000" stroke-width="2.32667" stroke-linecap="square" fill="none" transform="matrix(1.00057 0 0 1 230 119)"/><path d="M290.833 186.133 302.467 186.133" stroke="#000000" stroke-width="2.32667" stroke-linecap="square" fill="none" transform="matrix(1.00057 0 0 1 230 119)"/><path d="M290.833 209.4 302.467 209.4" stroke="#000000" stroke-width="2.32667" stroke-linecap="square" fill="none" transform="matrix(1.00057 0 0 1 230 119)"/><path d="M290.833 221.033 302.467 221.033" stroke="#000000" stroke-width="2.32667" stroke-linecap="square" fill="none" transform="matrix(1.00057 0 0 1 230 119)"/><path d="M290.833 232.667 302.467 232.667" stroke="#000000" stroke-width="2.32667" stroke-linecap="square" fill="none" transform="matrix(1.00057 0 0 1 230 119)"/><path d="M290.833 244.3 302.467 244.3" stroke="#000000" stroke-width="2.32667" stroke-linecap="square" fill="none" transform="matrix(1.00057 0 0 1 230 119)"/><path d="M290.833 255.933 302.467 255.933" stroke="#000000" stroke-width="2.32667" stroke-linecap="square" fill="none" transform="matrix(1.00057 0 0 1 230 119)"/><path d="M290.833 267.567 302.467 267.567" stroke="#000000" stroke-width="2.32667" stroke-linecap="square" fill="none" transform="matrix(1.00057 0 0 1 230 119)"/><path d="M290.833 279.2 302.467 279.2" stroke="#000000" stroke-width="2.32667" stroke-linecap="square" fill="none" transform="matrix(1.00057 0 0 1 230 119)"/><path d="M290.833 290.833 302.467 290.833" stroke="#000000" stroke-width="2.32667" stroke-linecap="square" fill="none" transform="matrix(1.00057 0 0 1 230 119)"/><text font-family="Arial,Arial_MSFontService,sans-serif" font-weight="400" font-size="11" transform="matrix(1.164 0 0 1.16333 385.976 259)">IOREF<tspan font-size="11" x="0" y="9.45559">RESET</tspan><tspan font-size="11" x="0" y="19.7708">3</tspan><tspan font-size="11" x="5.99998" y="19.7708">.</tspan><tspan font-size="11" x="8.99998" y="19.7708">3</tspan><tspan font-size="11" x="15" y="19.7708">V</tspan><tspan font-size="11" x="0" y="30.086">5</tspan><tspan font-size="11" x="5.99998" y="30.086">V</tspan><tspan font-size="11" x="0" y="39.5415">GND</tspan><tspan font-size="11" x="0" y="49.8567">GND</tspan><tspan font-size="11" x="0" y="59.3123">Vin</tspan><tspan font-size="11" x="0" y="79.9427">A</tspan><tspan font-size="11" x="7.99998" y="79.9427">0</tspan><tspan font-size="11" x="0" y="89.3983">A</tspan><tspan font-size="11" x="7.99998" y="89.3983">1</tspan><tspan font-size="11" x="0" y="99.7135">A</tspan><tspan font-size="11" x="7.99998" y="99.7135">2</tspan><tspan font-size="11" x="0" y="110.029">A</tspan><tspan font-size="11" x="7.99998" y="110.029">3</tspan><tspan font-size="11" x="0" y="119.484">A</tspan><tspan font-size="11" x="7.99998" y="119.484">4</tspan><tspan font-size="11" x="0" y="129.799">A</tspan><tspan font-size="11" x="7.99998" y="129.799">5</tspan><tspan font-size="11" x="85" y="-30.086">AREF</tspan><tspan font-size="11" x="90" y="-20.6304">GND</tspan><tspan font-size="11" x="93" y="-10.3152">D</tspan><tspan font-size="11" x="100" y="-10.3152">13</tspan><tspan font-size="11" x="93" y="0">D</tspan><tspan font-size="11" x="100" y="0">12</tspan><tspan font-size="11" x="67" y="9.45559">PWM D</tspan><tspan font-size="11" x="101" y="9.45559">11</tspan><tspan font-size="11" x="66" y="19.7708">PWM D</tspan><tspan font-size="11" x="100" y="19.7708">10</tspan><tspan font-size="11" x="72" y="30.086">PWM D</tspan><tspan font-size="11" x="106" y="30.086">9</tspan><tspan font-size="11" x="99" y="39.5415">D</tspan><tspan font-size="11" x="106" y="39.5415">8</tspan><tspan font-size="11" x="99" y="59.3123">D</tspan><tspan font-size="11" x="106" y="59.3123">7</tspan><tspan font-size="11" x="72" y="69.6275">PWM D</tspan><tspan font-size="11" x="106" y="69.6275">6</tspan><tspan font-size="11" x="72" y="79.9427">PWM D</tspan><tspan font-size="11" x="106" y="79.9427">5</tspan><tspan font-size="11" x="99" y="89.3983">D</tspan><tspan font-size="11" x="106" y="89.3983">4</tspan><tspan font-size="11" x="72" y="99.7135">PWM D</tspan><tspan font-size="11" x="106" y="99.7135">3</tspan><tspan font-size="11" x="99" y="110.029">D</tspan><tspan font-size="11" x="106" y="110.029">2</tspan><tspan font-size="11" x="83" y="119.484">TX D</tspan><tspan font-size="11" x="106" y="119.484">1</tspan><tspan font-size="11" x="82" y="129.799">RX D</tspan><tspan font-size="11" x="106" y="129.799">0</tspan></text><path d="M221.033 93.0667C223.36 103.537 238.483 103.537 238.483 93.0667 238.483 82.5967 223.36 82.5967 221.033 93.0667" stroke="#000000" stroke-width="2.32667" stroke-linecap="square" fill="none" transform="matrix(1.00057 0 0 1 230 119)"/><path d="M221.033 93.0667C218.707 82.5967 203.583 82.5967 203.583 93.0667 203.583 103.537 218.707 103.537 221.033 93.0667" stroke="#000000" stroke-width="2.32667" stroke-linecap="square" fill="none" transform="matrix(1.00057 0 0 1 230 119)"/><path d="M228.013 93.0667 232.667 93.0667" stroke="#000000" stroke-width="2.32667" stroke-linecap="square" fill="none" transform="matrix(1.00057 0 0 1 230 119)"/><path d="M230.34 95.3933 230.34 90.74" stroke="#000000" stroke-width="2.32667" stroke-linecap="square" fill="none" transform="matrix(1.00057 0 0 1 230 119)"/><path d="M214.053 93.0667 209.4 93.0667" stroke="#000000" stroke-width="2.32667" stroke-linecap="square" fill="none" transform="matrix(1.00057 0 0 1 230 119)"/></g></svg>